HIERARCHY
ROOT Hips
{
	OFFSET -3.958830 18.904000 13.208200
	CHANNELS 6 Xposition Yposition Zposition Zrotation Yrotation Xrotation 
	JOINT LHipJoint
	{
		OFFSET 0.000000 0.000000 0.000000
		CHANNELS 3 Zrotation Yrotation Xrotation
		JOINT LeftUpLeg
		{
			OFFSET 1.800000 -1.400000 0.085000
			CHANNELS 3 Zrotation Yrotation Xrotation
			JOINT LeftLeg
			{
				OFFSET 2.215000 -6.000000 0.000000
				CHANNELS 3 Zrotation Yrotation Xrotation
				JOINT LeftFoot
				{
					OFFSET 2.500000 -6.900000 0.000000
					CHANNELS 3 Zrotation Yrotation Xrotation
					JOINT LeftToeBase
					{
						OFFSET 0.200000 -0.500000 1.950000
						CHANNELS 3 Zrotation Yrotation Xrotation
						End Site
						{
							OFFSET 0.000000 0.000000 0.000000
						}
					}
				}
			}
		}
	}
	JOINT RHipJoint
	{
		OFFSET 0.000000 0.000000 0.000000
		CHANNELS 3 Zrotation Yrotation Xrotation
		JOINT RightUpLeg
		{
			OFFSET -1.800000 -1.400000 0.085000
			CHANNELS 3 Zrotation Yrotation Xrotation
			JOINT RightLeg
			{
				OFFSET -2.215000 -6.000000 0.000000
				CHANNELS 3 Zrotation Yrotation Xrotation
				JOINT RightFoot
				{
					OFFSET -2.500000 -6.900000 0.000000
					CHANNELS 3 Zrotation Yrotation Xrotation
					JOINT RightToeBase
					{
						OFFSET -0.200000 -0.500000 1.950000
						CHANNELS 3 Zrotation Yrotation Xrotation
						End Site
						{
							OFFSET 0.000000 0.000000 0.000000
						}
					}
				}
			}
		}
	}
	JOINT LowerBack
	{
		OFFSET 0.000000 0.000000 0.000000
		CHANNELS 3 Zrotation Yrotation Xrotation
		JOINT Spine
		{
			OFFSET -0.087000 1.940000 -0.288900
			CHANNELS 3 Zrotation Yrotation Xrotation
			JOINT Spine1
			{
				OFFSET 0.000000 1.950000 0.060000
				CHANNELS 3 Zrotation Yrotation Xrotation
				JOINT Neck
				{
					OFFSET 0.000000 0.000000 0.000000
					CHANNELS 3 Zrotation Yrotation Xrotation
					JOINT Neck1
					{
						OFFSET 0.000000 1.600000 0.340000
						CHANNELS 3 Zrotation Yrotation Xrotation
						JOINT Head
						{
							OFFSET 0.000000 1.667000 -0.240000
							CHANNELS 3 Zrotation Yrotation Xrotation
							End Site
							{
								OFFSET 0.000000 0.000000 0.000000
							}
						}
					}
				}
				JOINT LeftShoulder
				{
					OFFSET 0.000000 0.000000 0.000000
					CHANNELS 3 Zrotation Yrotation Xrotation
					JOINT LeftArm
					{
						OFFSET 2.700000 1.550000 -0.730000
						CHANNELS 3 Zrotation Yrotation Xrotation
						JOINT LeftForeArm
						{
							OFFSET 5.450000 0.000000 0.000000
							CHANNELS 3 Zrotation Yrotation Xrotation
							JOINT LeftHand
							{
								OFFSET 3.450000 0.000000 0.000000
								CHANNELS 3 Zrotation Yrotation Xrotation
								JOINT LeftHandIndex1
								{
									OFFSET 0.750000 0.000000 0.000000
									CHANNELS 3 Zrotation Yrotation Xrotation
									End Site
									{
										OFFSET 0.000000 0.000000 0.000000
									}
								}
							}
						}
					}
				}
				JOINT RightShoulder
				{
					OFFSET 0.000000 0.000000 0.000000
					CHANNELS 3 Zrotation Yrotation Xrotation
					JOINT RightArm
					{
						OFFSET -2.700000 1.550000 -0.730000
						CHANNELS 3 Zrotation Yrotation Xrotation
						JOINT RightForeArm
						{
							OFFSET -5.450000 0.000000 0.000000
							CHANNELS 3 Zrotation Yrotation Xrotation
							JOINT RightHand
							{
								OFFSET -3.450000 0.000000 0.000000
								CHANNELS 3 Zrotation Yrotation Xrotation
								JOINT RightHandIndex1
								{
									OFFSET -0.750000 0.000000 0.000000
									CHANNELS 3 Zrotation Yrotation Xrotation
									End Site
									{
										OFFSET 0.000000 0.000000 0.000000
									}
								}
							}
						}
					}
				}
			}
		}
	}
}
MOTION
Frames: 13
Frame Time: 0.016667
-0.618910 16.791890 -1.410550 -3.179628 -4.171279 0.618026 -15.570846 12.897258 3.082958 -0.116971 -5.440017 -7.520322 -16.417529 10.910429 26.470514 0.282550 7.503547 2.354490 0.213160 -0.244970 0.270480 18.185299 -8.948394 3.410912 2.463326 3.435288 -38.271454 21.654318 -13.449428 28.678941 -0.326033 -5.896127 2.455337 0.041170 0.712980 0.385720 -2.903579 -4.118408 -7.207124 6.011064 -7.397501 3.614071 -2.755013 -6.939588 12.437879 1.282479 1.324776 -6.162679 -0.562771 5.371368 31.102774 -8.641010 10.692370 8.459930 -0.666099 4.801580 -0.477131 -12.237623 -11.093118 1.016149 -5.476232 -67.837096 3.618970 -4.271966 3.822326 -0.048430 0.767920 -0.550110 0.225810 -1.503626 -10.216930 4.809951 35.149088 -25.055828 -10.390330 10.742102 0.170709 -2.669911 2.135450 -1.443001 -0.276190 -0.002300 0.000230 -0.230040 
-0.606490 16.693990 -1.285610 -2.831168 -7.600425 1.193365 -15.531796 12.741595 3.112030 -0.903850 -5.282511 -6.991006 -17.657126 11.460460 26.602538 0.339520 7.727984 2.300489 0.213180 -0.234970 0.262410 18.251808 -8.903173 3.480418 3.986574 4.476336 -37.812002 21.655399 -13.004339 28.529973 -0.319500 -5.799894 2.511470 0.058750 0.749280 0.384560 -3.071736 -3.864794 -7.242600 7.306190 -7.032850 3.641818 -3.162628 -6.569386 12.284507 1.149372 0.642326 -6.209373 -1.368329 6.444993 29.852990 -8.581060 11.258710 7.905280 -1.027891 5.270605 -0.434182 -10.096428 -8.198090 1.048995 -12.807271 -65.635796 7.893206 -4.316546 3.864449 -0.053950 0.791920 -0.559550 0.238680 -0.947390 -9.961067 4.763973 32.843684 -24.439879 -9.839130 11.236388 2.972797 -2.570044 2.043642 -1.504891 -0.293170 0.032890 0.005210 -0.225340 
-0.593250 16.620050 -1.161320 -2.589888 -10.829773 1.697942 -15.495788 12.641688 3.139014 -1.891211 -4.908570 -6.037115 -18.449304 11.826522 26.445620 0.402180 7.829209 2.262797 0.217590 -0.235510 0.278440 18.306061 -8.882873 3.553896 5.606808 5.441693 -37.132511 21.056251 -12.610795 29.053021 -0.337473 -5.729334 2.528690 0.045640 0.722550 0.396500 -3.222347 -3.661908 -7.312554 8.573390 -6.583811 4.140975 -3.248490 -6.160270 11.942227 1.104297 0.042752 -6.438304 -2.172471 7.070452 29.139945 -8.787880 11.756260 7.297730 -2.036462 5.170473 -0.320321 -8.502403 -5.277719 0.785160 -19.673164 -62.708466 11.355475 -4.305082 3.907712 -0.033650 0.770210 -0.533560 0.226740 0.068433 -9.174976 4.908174 31.561313 -24.410919 -9.756277 11.384469 6.092752 -2.305235 1.996916 -1.566016 -0.278650 0.017050 0.005780 -0.231140 
-0.572120 16.586230 -1.035830 -2.481989 -13.116533 1.757880 -15.447865 12.682354 3.165126 -2.921756 -4.312579 -4.753154 -17.901648 11.751990 26.319840 0.434280 7.735066 2.274046 0.205040 -0.268590 0.304650 18.342330 -8.953642 3.583662 6.914483 5.905216 -35.712208 19.476821 -11.934672 29.421697 -0.331516 -5.510243 2.597228 -0.008920 0.645510 0.392930 -3.344983 -3.566274 -7.414383 9.909073 -6.370916 5.527483 -3.492489 -5.938700 11.010056 1.354533 -0.354762 -6.768107 -2.854410 7.173185 29.453731 -9.358860 12.319330 6.746450 -3.557709 4.524295 -0.243199 -8.030649 -3.153679 0.164990 -24.713250 -57.754692 12.967035 -4.229985 3.889351 0.029270 0.702930 -0.479070 0.195450 1.001562 -8.142071 5.158715 32.116928 -24.123332 -10.139577 10.764673 8.142171 -1.960550 2.022793 -1.553134 -0.259810 -0.017090 0.005820 -0.252700 
-0.542280 16.608270 -0.940850 -2.984250 -15.371495 1.593638 -15.328364 12.688090 3.227609 -2.323792 -3.904181 -3.551856 -19.210957 12.096688 25.202851 0.510970 7.696619 2.243160 0.245150 -0.250880 0.373900 18.429516 -9.061184 3.629421 8.182356 6.325498 -33.813132 17.983214 -11.247964 29.570715 -0.369192 -5.218988 2.686303 -0.063190 0.489380 0.361470 -3.644677 -3.361436 -7.616596 12.925570 -6.670089 8.182294 -5.087193 -5.832968 9.600023 1.753347 -1.308198 -7.446522 -4.706689 7.486620 31.014774 -9.249100 12.500560 5.181040 -5.756305 3.391669 0.004361 -8.282212 -0.286600 -1.055203 -26.193727 -53.481639 12.411466 -4.051933 3.813021 0.154340 0.546610 -0.364360 0.168300 2.158758 -6.338297 5.557860 34.961090 -23.153633 -11.114943 8.868274 9.753788 -1.555293 2.123762 -1.481999 -0.217110 -0.052010 -0.032740 -0.280020 
-0.536080 16.631710 -0.840770 -2.743647 -16.241469 1.961641 -15.302474 12.780191 3.279157 -2.380229 -3.800876 -3.695403 -19.168788 12.188862 25.490412 0.546010 7.689369 2.248781 0.237800 -0.268700 0.371530 18.432712 -9.090385 3.627647 8.840199 6.398271 -32.516211 16.567947 -10.367029 28.799146 -0.327151 -4.865196 2.823243 -0.097960 0.460360 0.334510 -3.669341 -3.471277 -7.713223 13.551200 -6.967171 9.803957 -5.019976 -5.990188 8.030504 1.762103 -2.076452 -7.729162 -6.156845 7.783324 31.114253 -8.803800 12.256790 4.866710 -7.109225 3.232361 0.309149 -10.571243 1.725291 -2.004014 -27.870413 -48.994473 11.661552 -3.972476 3.736606 0.209260 0.486570 -0.329110 0.174690 3.488544 -5.473611 5.460175 37.445950 -22.164355 -12.000378 6.825684 12.134667 -1.291719 2.155118 -1.461902 -0.219760 -0.035690 -0.042820 -0.276590 
-0.526350 16.670830 -0.726680 -2.480655 -16.932759 3.070800 -15.282019 12.797829 3.281209 -2.220559 -3.928634 -5.080637 -18.984371 12.415785 26.642792 0.587218 7.768646 2.225496 0.200660 -0.296230 0.320120 18.451138 -9.087855 3.646132 9.788697 6.747421 -32.137395 14.075321 -9.142074 28.214828 -0.221867 -4.488645 2.975893 -0.123760 0.490540 0.342710 -3.724509 -3.475888 -7.697403 14.449310 -7.141411 10.136336 -4.871168 -6.113003 6.490432 1.676480 -2.892083 -7.466091 -7.394123 8.061779 29.720109 -9.249620 12.432340 5.580940 -8.426534 3.912628 0.308164 -14.320206 2.627272 -2.804709 -28.453263 -43.933432 10.224515 -3.992733 3.698568 0.176390 0.510870 -0.348980 0.182740 4.984351 -5.461422 4.904189 39.920993 -20.575796 -12.657760 3.783802 14.645515 -1.233995 2.161929 -1.512060 -0.209600 -0.046700 -0.028370 -0.252790 
-0.522850 16.734590 -0.621250 -2.038014 -17.919569 3.915874 -15.275933 12.829977 3.309032 -1.514268 -4.278602 -6.852325 -18.830512 13.031554 28.987139 0.677197 8.023035 2.121320 0.198620 -0.291520 0.337980 18.444710 -9.081858 3.683156 10.511972 7.136737 -31.863872 11.054980 -7.830166 27.976110 -0.150741 -4.086872 3.112016 -0.147300 0.460030 0.346720 -3.710192 -3.508412 -7.753415 14.433932 -7.049761 11.127841 -4.397532 -5.965227 4.660936 1.732025 -3.164994 -7.007912 -7.767911 8.228160 29.297853 -9.697490 12.910830 5.049590 -9.810111 4.827069 0.197184 -18.370765 3.512894 -3.696498 -28.616506 -38.753292 8.575143 -3.980206 3.634503 0.173630 0.487640 -0.319760 0.170540 6.314878 -5.961182 4.040928 43.233908 -18.520875 -13.730044 0.030954 17.680756 -1.366486 2.189852 -1.540294 -0.179660 -0.063590 -0.039910 -0.245370 
-0.510210 16.804000 -0.518910 -1.249977 -18.854547 3.998785 -15.260635 12.957962 3.373858 -1.061784 -4.732822 -8.662425 -17.232577 13.481409 32.862485 0.743536 8.348338 1.973153 0.216900 -0.280470 0.364300 18.419401 -9.159439 3.662114 10.278025 7.050189 -31.252846 7.951355 -6.629276 27.641116 -0.106951 -3.708889 3.234020 -0.167970 0.394440 0.342070 -3.654276 -3.614014 -7.844565 13.934688 -7.080807 13.053714 -4.128162 -5.765717 2.630475 1.810545 -3.878505 -6.849770 -9.181084 8.539809 29.839239 -10.005310 13.031130 3.906630 -12.129366 5.167944 0.049573 -21.534199 5.023361 -4.698595 -27.882307 -34.199607 6.788509 -3.929901 3.546041 0.227390 0.422260 -0.266200 0.158610 8.533025 -5.450262 3.572783 45.910603 -16.911239 -14.816848 -1.848503 20.779809 -1.529515 2.190893 -1.531350 -0.157230 -0.076720 -0.050870 -0.254110 
-0.509780 16.847760 -0.423020 0.010988 -19.558405 4.452218 -15.310150 12.968446 3.554049 -0.090361 -5.814278 -11.764729 -16.950135 14.829659 38.002133 0.913778 9.169121 1.685996 0.214280 -0.293090 0.365010 18.355595 -9.129986 3.600382 9.792215 7.012013 -31.448036 4.514772 -5.437246 27.732569 -0.060273 -3.428937 3.323401 -0.187940 0.380890 0.349280 -3.462006 -3.778315 -7.966312 12.116943 -6.657884 14.291108 -3.007038 -5.328047 0.899725 1.768801 -4.165305 -6.568533 -9.651966 8.502826 29.501584 -10.032560 12.856050 3.394230 -13.883026 5.656082 -0.149505 -25.486024 5.534324 -5.452466 -25.906186 -29.077202 4.727243 -3.929780 3.453082 0.253420 0.398180 -0.247010 0.156210 10.549285 -5.269315 3.108914 48.470407 -15.873100 -16.197304 -2.407479 24.935418 -1.723259 2.152324 -1.546306 -0.150150 -0.082370 -0.048380 -0.252400 
-0.508750 16.858960 -0.330560 0.519333 -20.279198 5.888966 -15.325010 12.753040 3.680295 1.834187 -6.769236 -15.982505 -16.484061 16.258906 42.929327 1.073720 10.035447 1.414069 0.200360 -0.308500 0.353120 18.370900 -9.045727 3.632129 10.082034 7.586495 -32.816693 0.551389 -4.196269 28.950071 -0.021343 -3.363761 3.360292 -0.185320 0.415860 0.339660 -3.492916 -3.581536 -8.006801 11.893376 -6.375924 14.064600 -2.760944 -5.027948 0.115015 1.645561 -4.225043 -6.076902 -9.261989 8.361310 27.938431 -10.220600 12.954660 3.943630 -14.853126 6.395305 -0.267633 -29.168692 6.238524 -6.075740 -24.670646 -24.881205 3.288661 -3.972032 3.388290 0.224760 0.427910 -0.279030 0.171780 11.762239 -5.708403 2.346953 51.177609 -13.919156 -17.115817 -1.479331 28.421113 -1.834561 2.113682 -1.585028 -0.168880 -0.073280 -0.056890 -0.246310 
-0.490790 16.867940 -0.238080 0.248340 -21.381980 7.015725 -15.307708 12.522255 3.812159 4.701738 -7.209777 -19.951354 -15.481974 17.805755 48.023745 1.213415 10.970224 1.100162 0.227550 -0.285060 0.395010 18.417242 -8.968841 3.697430 10.645652 8.276668 -33.456302 -3.155211 -3.038097 30.345113 -0.057896 -3.401864 3.339385 -0.166060 0.395710 0.326900 -3.627490 -3.309660 -8.109247 12.957675 -6.386506 14.936564 -2.904675 -4.682597 -1.106253 1.602447 -4.574568 -5.494043 -9.496124 8.856497 27.237704 -10.681810 13.470540 2.461350 -16.674747 7.304055 -0.571397 -31.689528 7.864502 -6.749877 -24.411165 -21.892492 2.351657 -3.964477 3.315321 0.257170 0.406530 -0.257430 0.174050 13.536716 -6.147326 1.459657 52.714017 -11.421605 -17.483873 -0.246899 32.380835 -1.705877 2.080481 -1.590467 -0.184540 -0.050560 -0.076830 -0.262780 
-0.469530 16.863910 -0.152170 0.097308 -22.531541 7.921316 -15.304255 12.435708 3.911578 6.799916 -7.143716 -23.638052 -12.207761 18.196456 53.365112 1.308293 11.603660 0.873890 0.242330 -0.278160 0.440520 18.430928 -8.943066 3.760667 10.674761 8.745263 -33.919220 -6.330312 -1.967506 30.973140 -0.090587 -3.393946 3.336158 -0.176350 0.335950 0.301300 -3.665725 -3.155598 -8.250010 13.432602 -6.112039 16.365288 -2.715716 -3.963366 -2.643285 1.781558 -4.764392 -5.339448 -9.629813 8.969612 27.512851 -11.545430 14.106790 1.326150 -18.389244 7.729332 -0.665015 -34.027736 9.594075 -7.424631 -24.277046 -18.821038 1.490586 -3.914889 3.242777 0.304060 0.354050 -0.219170 0.162330 14.816134 -5.990425 1.033029 54.766792 -9.352177 -18.056321 1.199143 36.341344 -1.435141 2.082095 -1.580405 -0.188240 -0.052910 -0.103130 -0.283920 
